# xmcd
#
# Track frame offsets:
#	150
#	18770
#	43050
#	62050
#	81012
#	98612
#	122102
#	141757
#	162475
#	185475
#	206332
#	220712
#	239040
#
# Disc length: 3342 seconds
#
# Revision: 4
# Processed by: cddbd v1.5PL3 Copyright (c) Steve Scherf et al.
# Submitted via: CDex 1.50Beta5
#
DISCID=b10d0c0d
DTITLE=Deen - Pray
DYEAR=2002
DGENRE=Pop
TTITLE0=magic
TTITLE1=Birthday eve 〜誰よりも早い愛の歌〜
TTITLE2=i...
TTITLE3=空もハレルヤ
TTITLE4=We can change the world
TTITLE5=Call your name
TTITLE6=I say to my love
TTITLE7=Take your hands
TTITLE8=Tears on Earth
TTITLE9=Break it!
TTITLE10=Bridge 〜愛の言葉 愛の力〜 <Boogie woogie Style>
TTITLE11=もみの木の下で・・・
TTITLE12=Christmas time <a capella>
EXTD=
EXTT0=
EXTT1=
EXTT2=
EXTT3=
EXTT4=
EXTT5=
EXTT6=
EXTT7=
EXTT8=
EXTT9=
EXTT10=
EXTT11=
EXTT12=
PLAYORDER=
